<?xml version="1.0" encoding="iso-8859-1"?>
<!-- Generator: Adobe Illustrator 16.0.0, SVG Export Plug-In . SVG Version: 6.00 Build 0)  -->
<!DOCTYPE svg PUBLIC "-//W3C//DTD SVG 1.1//EN" "http://www.w3.org/Graphics/SVG/1.1/DTD/svg11.dtd">
<svg version="1.1" id="Capa_1" xmlns="http://www.w3.org/2000/svg" xmlns:xlink="http://www.w3.org/1999/xlink" x="0px" y="0px"
	 width="580.041px" height="580.041px" viewBox="0 0 580.041 580.041" style="enable-background:new 0 0 580.041 580.041;"
	 xml:space="preserve">
<g>
	<g>
		<path d="M290.03,564.455c159.913,0,290.011-130.107,290.011-290.033c0-82.73-35.45-161.727-97.256-216.737
			c-6.117-5.478-14.045-8.507-22.292-8.507c-9.614,0-18.807,4.143-25.215,11.362c-5.93,6.625-8.929,15.22-8.415,24.168
			c0.521,9.002,4.526,17.258,11.282,23.25c47.455,42.234,74.68,102.914,74.68,166.467c0,122.862-99.945,222.813-222.792,222.813
			c-122.859,0-222.814-99.953-222.814-222.813c0-63.52,27.265-124.233,74.802-166.568c13.801-12.295,15.043-33.556,2.772-47.396
			c-6.344-7.173-15.499-11.292-25.107-11.292c-8.256,0-16.2,3.026-22.369,8.519C35.471,112.67,0,191.67,0,274.422
			C0,434.348,130.108,564.455,290.03,564.455z"/>
		<path d="M256.422,49.194V262.88c0,9,3.498,17.448,9.847,23.792c6.34,6.331,14.78,9.819,23.761,9.819
			c18.532,0,33.608-15.076,33.608-33.607V49.194c0-18.531-15.076-33.608-33.608-33.608
			C271.499,15.586,256.422,30.663,256.422,49.194z"/>
	</g>
</g>
<g>
</g>
<g>
</g>
<g>
</g>
<g>
</g>
<g>
</g>
<g>
</g>
<g>
</g>
<g>
</g>
<g>
</g>
<g>
</g>
<g>
</g>
<g>
</g>
<g>
</g>
<g>
</g>
<g>
</g>
</svg>
